# xmcd
#
# Track frame offsets:
#	150
#	13723
#	30483
#	45868
#	58285
#	76145
#	90350
#	104693
#	116550
#	131650
#
# Disc length: 1908 seconds
#
# Revision: 3
# Processed by: cddbd v1.5.1PL0 Copyright (c) Steve Scherf et al.
# Submitted via: MusicWizard 7.0.2
#
DISCID=7507720a
DTITLE=Reba McEntire - Whoever's In New England
DYEAR=1986
DGENRE=Country
TTITLE0=Can't Stop Now
TTITLE1=You Can Take The Wings Off Me
TTITLE2=Whoever's In New England
TTITLE3=I'll Believe It When I Feel It
TTITLE4=I've Seen Better Days
TTITLE5=Little Rock
TTITLE6=If You Only Knew
TTITLE7=One Thin Dime
TTITLE8=Don't Touch Me There
TTITLE9=To Make That Same Mistake Again
EXTD=(c)1986  MCA Records Inc.\nupc 076743130427\nMCAD-31304\nProduced by Jimmy Bowen for Lynwood 
EXTD=Productions and Reba McEntire for Reba McEntire Productions
EXTT0=
EXTT1=
EXTT2=
EXTT3=
EXTT4=
EXTT5=
EXTT6=
EXTT7=
EXTT8=
EXTT9=
PLAYORDER=
